<svg id="Layer_1" xmlns="http://www.w3.org/2000/svg" xmlns:xlink="http://www.w3.org/1999/xlink" viewBox="0 0 81.1 87.3"><style>.st0,.st1,.st2,.st3{clip-path:url(#SVGID_2_);fill:#121134}.st1,.st2,.st3{fill:#131134}.st2,.st3{fill:#141235}.st3{fill:#151235}.st4,.st5,.st6,.st7,.st8{clip-path:url(#SVGID_2_);fill:#161235}.st5,.st6,.st7,.st8{fill:#171336}.st6,.st7,.st8{fill:#181336}.st7,.st8{fill:#191336}.st8{fill:#1a1437}.st10,.st11,.st12,.st13,.st9{clip-path:url(#SVGID_2_);fill:#1b1437}.st10,.st11,.st12,.st13{fill:#1c1537}.st11,.st12,.st13{fill:#1d1538}.st12,.st13{fill:#1e1638}.st13{fill:#1f1639}.st14,.st15,.st16,.st17,.st18{clip-path:url(#SVGID_2_);fill:#201639}.st15,.st16,.st17,.st18{fill:#211739}.st16,.st17,.st18{fill:#221739}.st17,.st18{fill:#23173a}.st18{fill:#24183a}.st19,.st20,.st21,.st22,.st23{clip-path:url(#SVGID_2_);fill:#25183b}.st20,.st21,.st22,.st23{fill:#26193b}.st21,.st22,.st23{fill:#27193b}.st22,.st23{fill:#28193c}.st23{fill:#291a3c}.st24,.st25,.st26,.st27,.st28{clip-path:url(#SVGID_2_);fill:#2a1a3d}.st25,.st26,.st27,.st28{fill:#2b1b3d}.st26,.st27,.st28{fill:#2c1b3d}.st27,.st28{fill:#2d1b3d}.st28{fill:#2e1c3e}.st29,.st30,.st31,.st32,.st33{clip-path:url(#SVGID_2_);fill:#2f1c3e}.st30,.st31,.st32,.st33{fill:#301d3f}.st31,.st32,.st33{fill:#311d3f}.st32,.st33{fill:#321d3f}.st33{fill:#321e40}.st34,.st35,.st36,.st37,.st38{clip-path:url(#SVGID_2_);fill:#331e40}.st35,.st36,.st37,.st38{fill:#341e40}.st36,.st37,.st38{fill:#351e41}.st37,.st38{fill:#361f41}.st38{fill:#371f41}.st39,.st40,.st41,.st42,.st43{clip-path:url(#SVGID_2_);fill:#371f42}.st40,.st41,.st42,.st43{fill:#382042}.st41,.st42,.st43{fill:#392042}.st42,.st43{fill:#3a2042}.st43{fill:#3b2143}.st44,.st45,.st46,.st47,.st48{clip-path:url(#SVGID_2_);fill:#3c2143}.st45,.st46,.st47,.st48{fill:#3d2244}.st46,.st47,.st48{fill:#3e2244}.st47,.st48{fill:#3f2244}.st48{fill:#402345}.st49,.st50,.st51,.st52,.st53{clip-path:url(#SVGID_2_);fill:#412345}.st50,.st51,.st52,.st53{fill:#422346}.st51,.st52,.st53{fill:#432446}.st52,.st53{fill:#442446}.st53{fill:#452446}.st54,.st55,.st56,.st57,.st58{clip-path:url(#SVGID_2_);fill:#452547}.st55,.st56,.st57,.st58{fill:#462547}.st56,.st57,.st58{fill:#472547}.st57,.st58{fill:#482648}.st58{fill:#492648}.st59,.st60,.st61,.st62,.st63{clip-path:url(#SVGID_2_);fill:#4a2649}.st60,.st61,.st62,.st63{fill:#4b2749}.st61,.st62,.st63{fill:#4c2749}.st62,.st63{fill:#4d2749}.st63{fill:#4e284a}.st64,.st65,.st66,.st67,.st68{clip-path:url(#SVGID_2_);fill:#4f284a}.st65,.st66,.st67,.st68{fill:#50294b}.st66,.st67,.st68{fill:#51294b}.st67,.st68{fill:#52294b}.st68{fill:#53294c}.st69,.st70,.st71,.st72,.st73{clip-path:url(#SVGID_2_);fill:#542a4c}.st70,.st71,.st72,.st73{fill:#552a4c}.st71,.st72,.st73{fill:#562b4d}.st72,.st73{fill:#572b4d}.st73{fill:#582b4d}.st74,.st75,.st76,.st77,.st78{clip-path:url(#SVGID_2_);fill:#592b4e}.st75,.st76,.st77,.st78{fill:#592c4e}.st76,.st77,.st78{fill:#5a2c4e}.st77,.st78{fill:#5b2c4f}.st78{fill:#5c2d4f}.st79,.st80,.st81,.st82,.st83{clip-path:url(#SVGID_2_);fill:#5d2d4f}.st80,.st81,.st82,.st83{fill:#5e2d4f}.st81,.st82,.st83{fill:#5f2d50}.st82,.st83{fill:#602e50}.st83{fill:#612e51}.st84{fill:#fff}</style><g id="layer1" transform="translate(-3987.602 -6644.883) scale(15.62304)"><g id="rect3050"><defs><path id="SVGID_1_" d="M256.4 425.9h3c.4 0 .7.3.7.7v3c0 .4-.3.7-.7.7h-3c-.4 0-.7-.3-.7-.7v-3c-.1-.4.3-.7.7-.7z"/></defs><clipPath id="SVGID_2_"><use xlink:href="#SVGID_1_" overflow="visible"/></clipPath><path class="st0" d="M255.6 429.9l.5.5h-.5z"/><path class="st0" d="M255.6 429.8l.6.6h-.1l-.5-.5z"/><path class="st1" d="M255.6 429.7l.7.7h-.1l-.6-.6z"/><path class="st2" d="M255.6 429.7l.8.7h-.1l-.7-.7z"/><path class="st3" d="M255.6 429.6l.9.8h-.1l-.8-.7z"/><path class="st4" d="M255.6 429.5l1 .9h-.1l-.9-.8z"/><path class="st5" d="M255.6 429.4l1.1 1h-.1l-1-.9z"/><path class="st6" d="M255.6 429.3l1.1 1.1-1.1-1z"/><path class="st7" d="M255.6 429.2l1.2 1.2h-.1l-1.1-1.1z"/><path class="st8" d="M255.6 429.1l1.3 1.3h-.1l-1.2-1.2z"/><path class="st9" d="M255.6 429.1l1.4 1.3h-.1l-1.3-1.3z"/><path class="st10" d="M255.6 429l1.5 1.4h-.1l-1.4-1.3z"/><path class="st11" d="M255.6 428.9l1.6 1.5h-.1l-1.5-1.4z"/><path class="st11" d="M255.6 428.8l1.6 1.6-1.6-1.5z"/><path class="st12" d="M255.6 428.7l1.7 1.7h-.1l-1.6-1.6z"/><path class="st13" d="M255.6 428.6l1.8 1.8h-.1l-1.7-1.7z"/><path class="st14" d="M255.6 428.6l1.9 1.8h-.1l-1.8-1.8z"/><path class="st15" d="M255.6 428.5l2 1.9h-.1l-1.9-1.8z"/><path class="st16" d="M255.6 428.4l2.1 2h-.1l-2-1.9z"/><path class="st17" d="M255.6 428.3l2.2 2.1h-.1l-2.1-2z"/><path class="st18" d="M255.6 428.2l2.2 2.2-2.2-2.1z"/><path class="st18" d="M255.6 428.1l2.3 2.3h-.1l-2.2-2.2z"/><path class="st19" d="M255.6 428.1l2.4 2.3h-.1l-2.3-2.3z"/><path class="st20" d="M255.6 428l2.5 2.4h-.1l-2.4-2.3z"/><path class="st21" d="M255.6 427.9l2.6 2.5h-.1l-2.5-2.4z"/><path class="st22" d="M255.6 427.8l2.7 2.6h-.1l-2.6-2.5z"/><path class="st23" d="M255.6 427.7l2.8 2.7h-.1l-2.7-2.6z"/><path class="st23" d="M255.6 427.6l2.8 2.8-2.8-2.7z"/><path class="st24" d="M255.6 427.6l2.9 2.8h-.1l-2.8-2.8z"/><path class="st25" d="M255.6 427.5l3 2.9h-.1l-2.9-2.8z"/><path class="st26" d="M255.6 427.4l3.1 3h-.1l-3-2.9z"/><path class="st27" d="M255.6 427.3l3.2 3.1h-.1l-3.1-3z"/><path class="st28" d="M255.6 427.2l3.3 3.2h-.1l-3.2-3.1z"/><path class="st28" d="M255.6 427.1l3.4 3.3h-.1l-3.3-3.2z"/><path class="st29" d="M255.6 427.1l3.4 3.3-3.4-3.3z"/><path class="st30" d="M255.6 427l3.5 3.4h-.1l-3.4-3.3z"/><path class="st31" d="M255.6 426.9l3.6 3.5h-.1l-3.5-3.4z"/><path class="st32" d="M255.6 426.8l3.7 3.6h-.1l-3.6-3.5z"/><path class="st33" d="M255.6 426.7l3.8 3.7h-.1l-3.7-3.6z"/><path class="st34" d="M255.6 426.6l3.9 3.8h-.1l-3.8-3.7z"/><path class="st35" d="M255.6 426.6l3.9 3.8-3.9-3.8z"/><path class="st36" d="M255.6 426.5l4 3.9h-.1l-3.9-3.8z"/><path class="st37" d="M255.6 426.4l4.1 4h-.1l-4-3.9z"/><path class="st38" d="M255.6 426.3l4.2 4.1h-.1l-4.1-4z"/><path class="st39" d="M255.6 426.2l4.3 4.2h-.1l-4.2-4.1z"/><path class="st40" d="M255.6 426.1l4.4 4.3h-.1l-4.3-4.2z"/><path class="st41" d="M255.6 426.1l4.5 4.3h-.1l-4.4-4.3z"/><path class="st42" d="M255.6 426l4.5 4.4-4.5-4.3z"/><path class="st43" d="M255.7 425.9l4.4 4.4v.1l-4.5-4.4v-.1z"/><path class="st43" d="M255.8 425.9l4.3 4.3v.1l-4.4-4.4z"/><path class="st44" d="M255.8 425.9l4.3 4.2v.1l-4.3-4.3z"/><path class="st45" d="M255.9 425.9l4.2 4.1v.1l-4.3-4.2z"/><path class="st46" d="M256 425.9l4.1 4v.1l-4.2-4.1z"/><path class="st47" d="M256.1 425.9l4 4-4.1-4z"/><path class="st48" d="M256.2 425.9l3.9 3.9v.1l-4-4zM256.3 425.9l3.8 3.8v.1l-3.9-3.9z"/><path class="st49" d="M256.3 425.9l3.8 3.7v.1l-3.8-3.8z"/><path class="st50" d="M256.4 425.9l3.7 3.6v.1l-3.8-3.7z"/><path class="st51" d="M256.5 425.9l3.6 3.5v.1l-3.7-3.6z"/><path class="st52" d="M256.6 425.9l3.5 3.5-3.6-3.5z"/><path class="st53" d="M256.7 425.9l3.4 3.4v.1l-3.5-3.5z"/><path class="st54" d="M256.8 425.9l3.3 3.3v.1l-3.4-3.4z"/><path class="st55" d="M256.9 425.9l3.2 3.2v.1l-3.3-3.3z"/><path class="st56" d="M256.9 425.9l3.2 3.1v.1l-3.2-3.2z"/><path class="st57" d="M257 425.9l3.1 3v.1l-3.2-3.1z"/><path class="st58" d="M257.1 425.9l3 3-3.1-3z"/><path class="st58" d="M257.2 425.9l2.9 2.9v.1l-3-3z"/><path class="st59" d="M257.3 425.9l2.8 2.8v.1l-2.9-2.9z"/><path class="st60" d="M257.4 425.9l2.7 2.7v.1l-2.8-2.8z"/><path class="st61" d="M257.5 425.9l2.6 2.6v.1l-2.7-2.7z"/><path class="st62" d="M257.5 425.9l2.6 2.5v.1l-2.6-2.6z"/><path class="st63" d="M257.6 425.9l2.5 2.4v.1l-2.6-2.5z"/><path class="st63" d="M257.7 425.9l2.4 2.4-2.5-2.4z"/><path class="st64" d="M257.8 425.9l2.3 2.3v.1l-2.4-2.4z"/><path class="st65" d="M257.9 425.9l2.2 2.2v.1l-2.3-2.3z"/><path class="st66" d="M258 425.9l2.1 2.1v.1l-2.2-2.2z"/><path class="st67" d="M258.1 425.9l2 2v.1l-2.1-2.1z"/><path class="st68" d="M258.1 425.9l2 1.9v.1l-2-2z"/><path class="st69" d="M258.2 425.9l1.9 1.9-2-1.9z"/><path class="st69" d="M258.3 425.9l1.8 1.8v.1l-1.9-1.9z"/><path class="st70" d="M258.4 425.9l1.7 1.7v.1l-1.8-1.8z"/><path class="st71" d="M258.5 425.9l1.6 1.6v.1l-1.7-1.7z"/><path class="st72" d="M258.6 425.9l1.5 1.5v.1l-1.6-1.6z"/><path class="st73" d="M258.6 425.9l1.5 1.4v.1l-1.5-1.5z"/><path class="st74" d="M258.7 425.9l1.4 1.4-1.5-1.4z"/><path class="st75" d="M258.8 425.9l1.3 1.3v.1l-1.4-1.4z"/><path class="st76" d="M258.9 425.9l1.2 1.2v.1l-1.3-1.3z"/><path class="st77" d="M259 425.9l1.1 1.1v.1l-1.2-1.2z"/><path class="st78" d="M259.1 425.9l1 1v.1l-1.1-1.1z"/><path class="st79" d="M259.2 425.9l.9.9v.1l-1-1z"/><path class="st80" d="M259.2 425.9l.9.9-.9-.9z"/><path class="st81" d="M259.3 425.9l.8.8v.1l-.9-.9z"/><path class="st82" d="M259.4 425.9l.7.7v.1l-.8-.8zM259.5 425.9l.6.6v.1l-.7-.7z"/><path class="st83" d="M259.6 425.9l.5.5v.1l-.6-.6zM260.1 426.4l-.5-.5h.5z"/></g></g><path class="st84" d="M24.1 67.7V22.4H42c5.5 0 9.7.9 12.7 2.8s4.4 4.5 4.4 7.8c0 2.4-.9 4.6-2.7 6.4-1.8 1.8-4.1 3.1-6.9 3.8v.1c3.5.4 6.3 1.6 8.4 3.6 2.1 2 3.1 4.4 3.1 7.2 0 4.1-1.6 7.4-4.8 9.9s-7.6 3.6-13.2 3.6H24.1zm11.1-37.8v10.7h4.9c2.3 0 4.1-.5 5.4-1.5 1.3-1 2-2.4 2-4.2 0-3.3-2.7-5-8.1-5h-4.2zm0 18.3v11.9h6c2.6 0 4.6-.5 6-1.6 1.5-1.1 2.2-2.6 2.2-4.5 0-1.8-.7-3.2-2.1-4.3-1.4-1-3.4-1.5-6-1.5h-6.1z"/></svg>