<svg id="Layer_1" xmlns="http://www.w3.org/2000/svg" viewBox="0 0 81.1 87.3"><style>.st0{fill:#1072ba}.st1{fill:#29a6de}.st2{fill:#ebebeb}.st3{fill:none}.st4{fill:#fff}</style><path class="st0" d="M7.8 6.9h65.7L67.7 74l-27 7.4-27-7.4z"/><path class="st1" d="M40.7 12.4H68l-5.2 57.3L40.7 76z"/><path class="st2" d="M57.6 20.7H20.1l.8 8.2h31.4l-1 8.3H21.7l.7 8h28.4l-1 11.1-9.3 2.3-9-2.3-.5-6.6h-8.1L24.1 63l16.8 4.5L57.6 63l4-42.3z"/><path class="st3" d="M51.3 37.2l1-8.3H40.8v8.3zM49.8 56.3l1-11.1h-10v13.2z"/><path class="st4" d="M57.6 20.7H40.7v8.2h11.5l-1 8.3H40.7v8h10.1l-1.1 11.1-9 2.1v9.1h.1L57.6 63l4-42.3z"/></svg>