<svg id="Layer_1" xmlns="http://www.w3.org/2000/svg" viewBox="0 0 81.1 87.3"><style>.st0{fill:#d5b930}.st1{fill:#fdd83e}.st2{fill:#4e4e4e}.st3{fill:#010101}</style><g id="Layer_1_1_" transform="translate(-.071 -82.67)"><path id="path13" class="st0" d="M13.6 157.1l-6-67.9h66.6l-6.1 67.9-27.3 7.6-27.2-7.6z"/><path id="path15" class="st1" d="M40.8 158.9l22-6.1 5.2-58H40.8v64.1z"/><g id="Group" transform="translate(55 142)"><path id="path18" class="st2" d="M8.6-22.6H-3.1v-8.5H9.4l.7-8.3h-21.9v25.2H-.4l-1 10.8-10.4 1.9v8.7L6.3 2.9l2.3-25.5z"/><path id="path24" class="st3" d="M-16.4-39.5H-35l.8 8.3h9.5v28.4l-4.6-.7-.6-6.6h-8.4L-37.1 3c20.8 4.1.1 0 20.8 4.1v-46.6z"/></g></g></svg>